<svg width="111" height="44" viewBox="0 0 111 44" fill="none" xmlns="http://www.w3.org/2000/svg">
<g filter="url(#filter0_i_16106_22779)">
<path fill-rule="evenodd" clip-rule="evenodd" d="M22.0003 0C30.2249 0 34.3375 -0.000225413 37.4006 1.76816C39.4072 2.9267 41.074 4.59335 42.2325 6.6C44.0009 9.66306 44.0007 13.7755 44.0007 22C44.0007 30.2245 44.0009 34.3369 42.2325 37.4C41.074 39.4066 39.4072 41.0733 37.4006 42.2319C34.3375 44.0002 30.2249 44 22.0003 44C13.7757 44 9.6632 44.0002 6.6001 42.2319C4.59342 41.0733 2.92675 39.4066 1.76819 37.4C-0.000225416 34.3369 0 30.2245 0 22C0 13.7755 -0.000225416 9.66306 1.76819 6.6C2.92675 4.59335 4.59342 2.9267 6.6001 1.76816C9.6632 -0.000225413 13.7757 0 22.0003 0ZM24.2004 4.4C14.48 4.4 6.6001 12.2797 6.6001 22C6.6001 31.7203 14.48 39.6 24.2004 39.6C33.9208 39.6 41.8006 31.7203 41.8006 22C41.8006 12.2797 33.9208 4.4 24.2004 4.4Z" fill="url(#paint0_linear_16106_22779)"/>
<path d="M39.6006 22C39.6006 28.0751 34.6756 33 28.6004 33C22.5253 33 17.6003 28.0751 17.6003 22C17.6003 15.9249 22.5253 11 28.6004 11C34.6756 11 39.6006 15.9249 39.6006 22Z" fill="url(#paint1_linear_16106_22779)"/>
</g>
<path d="M103.721 28.929C102.398 28.929 101.207 28.6413 100.149 28.0659C99.0906 27.4739 98.2556 26.6436 97.6431 25.5749C97.048 24.5062 96.7508 23.2731 96.7508 21.8755C96.7508 20.4779 97.0563 19.2448 97.668 18.1761C98.2971 17.1074 99.1487 16.2853 100.224 15.7099C101.298 15.1179 102.497 14.822 103.82 14.822C105.143 14.822 106.342 15.1179 107.417 15.7099C108.492 16.2853 109.335 17.1074 109.948 18.1761C110.576 19.2448 110.89 20.4779 110.89 21.8755C110.89 23.2731 110.568 24.5062 109.923 25.5749C109.295 26.6436 108.434 27.4739 107.343 28.0659C106.268 28.6413 105.061 28.929 103.721 28.929ZM103.721 25.9202C104.35 25.9202 104.936 25.7723 105.483 25.4763C106.044 25.1638 106.491 24.7035 106.822 24.0952C107.153 23.4868 107.318 22.747 107.318 21.8755C107.318 20.5766 106.971 19.5819 106.276 18.8914C105.598 18.1843 104.763 17.8308 103.771 17.8308C102.778 17.8308 101.943 18.1843 101.265 18.8914C100.604 19.5819 100.273 20.5766 100.273 21.8755C100.273 23.1744 100.595 24.1774 101.24 24.8844C101.902 25.5749 102.729 25.9202 103.721 25.9202Z" fill="#0F172A"/>
<path d="M88.7702 28.929C87.4472 28.929 86.2565 28.6413 85.198 28.0659C84.1397 27.4739 83.3045 26.6436 82.6926 25.5749C82.0972 24.5062 81.7996 23.2731 81.7996 21.8755C81.7996 20.4779 82.1055 19.2448 82.7174 18.1761C83.3459 17.1074 84.1975 16.2853 85.2725 15.7099C86.3474 15.1179 87.5465 14.822 88.8695 14.822C90.1925 14.822 91.3915 15.1179 92.4664 15.7099C93.5412 16.2853 94.3846 17.1074 94.997 18.1761C95.6254 19.2448 95.9392 20.4779 95.9392 21.8755C95.9392 23.2731 95.6171 24.5062 94.9721 25.5749C94.3438 26.6436 93.4832 27.4739 92.392 28.0659C91.3171 28.6413 90.1098 28.929 88.7702 28.929ZM88.7702 25.9202C89.3986 25.9202 89.9858 25.7723 90.5315 25.4763C91.0938 25.1638 91.5403 24.7035 91.8711 24.0952C92.2018 23.4868 92.3673 22.747 92.3673 21.8755C92.3673 20.5766 92.0199 19.5819 91.3254 18.8914C90.6473 18.1843 89.8122 17.8308 88.8199 17.8308C87.8276 17.8308 86.9924 18.1843 86.3144 18.8914C85.6529 19.5819 85.3221 20.5766 85.3221 21.8755C85.3221 23.1744 85.6446 24.1774 86.2896 24.8844C86.9511 25.5749 87.778 25.9202 88.7702 25.9202Z" fill="#0F172A"/>
<path d="M73.8193 28.929C72.4964 28.929 71.3056 28.6413 70.2472 28.0659C69.1888 27.4739 68.3536 26.6436 67.7417 25.5749C67.1464 24.5062 66.8486 23.2731 66.8486 21.8755C66.8486 20.4779 67.1546 19.2448 67.7665 18.1761C68.3949 17.1074 69.2466 16.2853 70.3216 15.7099C71.3966 15.1179 72.5955 14.822 73.9186 14.822C75.2416 14.822 76.4406 15.1179 77.5155 15.7099C78.5905 16.2853 79.4339 17.1074 80.0458 18.1761C80.6743 19.2448 80.9885 20.4779 80.9885 21.8755C80.9885 23.2731 80.666 24.5062 80.0211 25.5749C79.3926 26.6436 78.5326 27.4739 77.4412 28.0659C76.3662 28.6413 75.159 28.929 73.8193 28.929ZM73.8193 25.9202C74.4478 25.9202 75.0349 25.7723 75.5806 25.4763C76.1429 25.1638 76.5895 24.7035 76.9202 24.0952C77.2509 23.4868 77.4163 22.747 77.4163 21.8755C77.4163 20.5766 77.0691 19.5819 76.3744 18.8914C75.6964 18.1843 74.8612 17.8308 73.869 17.8308C72.8767 17.8308 72.0415 18.1843 71.3635 18.8914C70.702 19.5819 70.3712 20.5766 70.3712 21.8755C70.3712 23.1744 70.6937 24.1774 71.3387 24.8844C72.0002 25.5749 72.8271 25.9202 73.8193 25.9202Z" fill="#0F172A"/>
<path d="M60.6722 25.9695H66.3777V28.707H57.1992V11.4925H60.6722V25.9695Z" fill="#0F172A"/>
<path d="M92.1415 29.503C92.4213 29.3908 92.6952 29.2632 92.9629 29.1199L92.9686 29.1168C94.15 28.4761 95.1079 27.5912 95.829 26.4753V29.1868C95.7521 32.8365 92.7639 35.7715 89.0894 35.7715H88.7196C85.0451 35.7715 82.0572 32.8365 81.9803 29.1868H85.6366C85.7121 30.8214 87.0636 32.1234 88.7196 32.1234H89.0894C90.6371 32.1234 91.9188 30.9861 92.1415 29.503Z" fill="#0F172A"/>
<defs>
<filter id="filter0_i_16106_22779" x="0" y="0" width="44" height="46" filterUnits="userSpaceOnUse" color-interpolation-filters="sRGB">
<feFlood flood-opacity="0" result="BackgroundImageFix"/>
<feBlend mode="normal" in="SourceGraphic" in2="BackgroundImageFix" result="shape"/>
<feColorMatrix in="SourceAlpha" type="matrix" values="0 0 0 0 0 0 0 0 0 0 0 0 0 0 0 0 0 0 127 0" result="hardAlpha"/>
<feOffset dy="2"/>
<feGaussianBlur stdDeviation="1"/>
<feComposite in2="hardAlpha" operator="arithmetic" k2="-1" k3="1"/>
<feColorMatrix type="matrix" values="0 0 0 0 1 0 0 0 0 1 0 0 0 0 1 0 0 0 0.3 0"/>
<feBlend mode="normal" in2="shape" result="effect1_innerShadow_16106_22779"/>
</filter>
<linearGradient id="paint0_linear_16106_22779" x1="17.6003" y1="11" x2="39.6003" y2="33.0003" gradientUnits="userSpaceOnUse">
<stop stop-color="#5E84FC"/>
<stop offset="1" stop-color="#3758F9"/>
</linearGradient>
<linearGradient id="paint1_linear_16106_22779" x1="17.6003" y1="11" x2="39.6003" y2="33.0003" gradientUnits="userSpaceOnUse">
<stop stop-color="#5E84FC"/>
<stop offset="1" stop-color="#3758F9"/>
</linearGradient>
</defs>
</svg>
