<svg width="24" height="24" viewBox="0 0 24 24" fill="none" xmlns="http://www.w3.org/2000/svg">
<g filter="url(#filter0_i_16103_20893)">
<path fillRule="evenodd" clipRule="evenodd" d="M1.75 9.00018C6.78472 9.00018 9 6.7849 9 1.75018C9 6.7849 11.2153 9.00018 16.25 9.00018C11.2153 9.00018 9 11.2155 9 16.2501C9 11.2155 6.78472 9.00018 1.75 9.00018Z" stroke="#9CA3AF" strokeWidth="1.5" stroke-linecap="round" stroke-linejoin="round"/>
</g>
<g filter="url(#filter1_i_16103_20893)">
<path fillRule="evenodd" clipRule="evenodd" d="M12.75 17.5002C16.0487 17.5002 17.5001 16.0488 17.5001 12.7502C17.5001 16.0488 18.9514 17.5002 22.25 17.5002C18.9514 17.5002 17.5001 18.9516 17.5001 22.2502C17.5001 18.9516 16.0487 17.5002 12.75 17.5002Z" stroke="#9CA3AF" strokeWidth="1.5" stroke-linecap="round" stroke-linejoin="round"/>
</g>
<defs>
<filter id="filter0_i_16103_20893" x="1" y="1.00018" width="16" height="16.4999" filterUnits="userSpaceOnUse" color-interpolation-filters="sRGB">
<feFlood floodOpacity="0" result="BackgroundImageFix"/>
<feBlend mode="normal" in="SourceGraphic" in2="BackgroundImageFix" result="shape"/>
<feColorMatrix in="SourceAlpha" type="matrix" values="0 0 0 0 0 0 0 0 0 0 0 0 0 0 0 0 0 0 127 0" result="hardAlpha"/>
<feOffset dy="0.5"/>
<feGaussianBlur stdDeviation="0.25"/>
<feComposite in2="hardAlpha" operator="arithmetic" k2="-1" k3="1"/>
<feColorMatrix type="matrix" values="0 0 0 0 0.121569 0 0 0 0 0.160784 0 0 0 0 0.215686 0 0 0 0.2 0"/>
<feBlend mode="normal" in2="shape" result="effect1_innerShadow_16103_20893"/>
</filter>
<filter id="filter1_i_16103_20893" x="12" y="12.0002" width="11" height="11.4999" filterUnits="userSpaceOnUse" color-interpolation-filters="sRGB">
<feFlood floodOpacity="0" result="BackgroundImageFix"/>
<feBlend mode="normal" in="SourceGraphic" in2="BackgroundImageFix" result="shape"/>
<feColorMatrix in="SourceAlpha" type="matrix" values="0 0 0 0 0 0 0 0 0 0 0 0 0 0 0 0 0 0 127 0" result="hardAlpha"/>
<feOffset dy="0.5"/>
<feGaussianBlur stdDeviation="0.25"/>
<feComposite in2="hardAlpha" operator="arithmetic" k2="-1" k3="1"/>
<feColorMatrix type="matrix" values="0 0 0 0 0.121569 0 0 0 0 0.160784 0 0 0 0 0.215686 0 0 0 0.2 0"/>
<feBlend mode="normal" in2="shape" result="effect1_innerShadow_16103_20893"/>
</filter>
</defs>
</svg>
